<?xml version="1.0" encoding="UTF-8"?>
<svg version="1.1" xmlns="http://www.w3.org/2000/svg" width="512" height="139">
<path d="M0 0 C168.96 0 337.92 0 512 0 C512 45.87 512 91.74 512 139 C343.04 139 174.08 139 0 139 C0 93.13 0 47.26 0 0 Z " fill="#020202" transform="translate(0,0)"/>
<path d="M0 0 C8.75467468 -0.0466569 17.50930555 -0.08203665 26.26407814 -0.10362434 C30.33071966 -0.11399336 34.39727515 -0.12802421 38.46386719 -0.15087891 C42.39963991 -0.17285607 46.3353307 -0.18462013 50.27116013 -0.18975449 C51.76120668 -0.19340619 53.25124955 -0.20053461 54.74126053 -0.21146011 C67.55350966 -0.30153739 80.98439093 0.03487229 93 5 C93.99 5.99 93.99 5.99 95 7 C94.06896552 25.93103448 94.06896552 25.93103448 90 30 C88.1796875 29.9140625 88.1796875 29.9140625 85.875 29.625 C85.12992187 29.53476562 84.38484375 29.44453125 83.6171875 29.3515625 C81.65724037 29.08828602 79.70202118 28.78939046 77.75 28.47265625 C65.03317976 26.86980703 50.88714757 26.30632717 40.078125 34.03515625 C32.74239029 40.97101069 30.01716415 50.96126919 29.69921875 60.7578125 C29.6799868 62.88012479 29.67663162 65.0026284 29.6875 67.125 C29.69168945 68.23286865 29.69587891 69.3407373 29.70019531 70.48217773 C29.87100975 82.89075597 31.24325042 94.76294338 39.1875 104.75 C46.33707074 110.46965659 53.09660766 111.5718635 62.0625 111.25 C65.341875 111.1675 68.62125 111.085 72 111 C72 102.42 72 93.84 72 85 C66.45026879 85.03957481 66.45026879 85.03957481 60.90063477 85.09008789 C58.93354026 85.09723091 56.96646379 85.05031893 55 85 C54 84 54 84 53.88647461 81.59155273 C53.89171143 80.54942627 53.89694824 79.5072998 53.90234375 78.43359375 C53.90556641 77.30888672 53.90878906 76.18417969 53.91210938 75.02539062 C53.92467773 73.24938477 53.92467773 73.24938477 53.9375 71.4375 C53.94201172 70.24962891 53.94652344 69.06175781 53.95117188 67.83789062 C53.96300325 64.89187774 53.97948713 61.94596319 54 59 C60.53278786 58.97472998 67.06556321 58.95716708 73.59838867 58.94506836 C75.82267732 58.94002683 78.04696263 58.93319377 80.27124023 58.92456055 C83.46078309 58.91248702 86.65028229 58.90677004 89.83984375 58.90234375 C91.34139259 58.89460182 91.34139259 58.89460182 92.87327576 58.88670349 C94.25459435 58.88659019 94.25459435 58.88659019 95.66381836 58.88647461 C96.88626503 58.88314369 96.88626503 58.88314369 98.13340759 58.87974548 C100 59 100 59 101 60 C101.12579437 62.09479229 101.1808317 64.19385599 101.20874023 66.29223633 C101.21852402 66.94919998 101.2283078 67.60616364 101.23838806 68.28303528 C101.26840162 70.46601314 101.28974448 72.64892944 101.30859375 74.83203125 C101.31516558 75.57633581 101.3217374 76.32064037 101.32850838 77.08749962 C101.3611294 81.02779617 101.38557245 84.96806536 101.4050293 88.90844727 C101.42284442 92.17284438 101.45766116 95.43637791 101.50756836 98.70043945 C101.56770125 102.63743184 101.59849526 106.57362331 101.60820198 110.51105309 C101.61677099 112.01223752 101.63562517 113.51339975 101.6649456 115.01432228 C101.70380708 117.11702574 101.70490487 119.21660362 101.69702148 121.31958008 C101.71248268 123.11375114 101.71248268 123.11375114 101.72825623 124.94416809 C101 128 101 128 98.16908264 130.32695007 C94.85244929 132.07789627 91.60201801 133.44769093 88.0625 134.6875 C86.89847656 135.10386719 85.73445313 135.52023438 84.53515625 135.94921875 C76.54365834 138.32459216 68.58460079 138.21511502 60.3125 138.25 C58.50749023 138.2809375 58.50749023 138.2809375 56.66601562 138.3125 C41.28032816 138.37899676 27.3905603 134.42997594 16 123.625 C0.16242337 106.48451487 -0.1666658 82.70913536 -0.09765625 60.7421875 C-0.09578797 58.98528077 -0.094366 57.22837351 -0.09336853 55.47146606 C-0.08957565 50.87828091 -0.07977343 46.28512807 -0.06866455 41.69195557 C-0.05838051 36.99255816 -0.05385602 32.29315545 -0.04882812 27.59375 C-0.03814785 18.39581924 -0.02111084 9.19791232 0 0 Z " fill="#FBFBFB" transform="translate(0,0)"/>
<path d="M0 0 C1.1653125 -0.00128906 2.330625 -0.00257813 3.53125 -0.00390625 C4.7584375 -0.00003906 5.985625 0.00382813 7.25 0.0078125 C9.09078125 0.00201172 9.09078125 0.00201172 10.96875 -0.00390625 C12.71671875 -0.00197266 12.71671875 -0.00197266 14.5 0 C15.57765625 0.00112793 16.6553125 0.00225586 17.765625 0.00341797 C20.25 0.1328125 20.25 0.1328125 21.25 1.1328125 C21.3427833 2.51441365 21.36747043 3.90069288 21.36352539 5.28540039 C21.36344986 6.16623795 21.36337433 7.0470755 21.36329651 7.9546051 C21.35813522 8.91189011 21.35297394 9.86917511 21.34765625 10.85546875 C21.3462413 11.83067978 21.34482635 12.80589081 21.34336853 13.81065369 C21.33775133 16.93890393 21.32519593 20.06708373 21.3125 23.1953125 C21.30748722 25.31054584 21.30292393 27.42578031 21.29882812 29.54101562 C21.28777631 34.73830546 21.27102146 39.93555395 21.25 45.1328125 C22.05207886 44.72144043 22.05207886 44.72144043 22.87036133 44.30175781 C23.93420044 43.76180176 23.93420044 43.76180176 25.01953125 43.2109375 C25.71925049 42.85418945 26.41896973 42.49744141 27.13989258 42.12988281 C36.56368044 37.67694406 48.2175567 37.68648713 57.97265625 41.1015625 C66.29823161 44.87163436 71.75395721 51.13645971 75.25 59.53515625 C77.32698914 65.53645661 78.37629132 71.1134445 78.36352539 77.48364258 C78.36341209 79.37503716 78.36341209 79.37503716 78.36329651 81.30464172 C78.35819069 82.67054281 78.3529747 84.03644348 78.34765625 85.40234375 C78.3457897 86.80767262 78.34436692 88.21300215 78.34336853 89.61833191 C78.339562 93.30575375 78.32974774 96.9931358 78.31866455 100.68054199 C78.30841025 104.44782981 78.30386232 108.2151241 78.29882812 111.98242188 C78.2881237 119.3659035 78.2710698 126.74935241 78.25 134.1328125 C72.30927213 134.207464 66.3688227 134.26165022 60.42773438 134.29760742 C58.41043333 134.31261134 56.39316444 134.33302105 54.37597656 134.35913086 C51.46150737 134.39588603 48.54747274 134.41262318 45.6328125 134.42578125 C44.29937302 134.44900703 44.29937302 134.44900703 42.93899536 134.47270203 C34.23740555 134.47499436 26.67243078 132.29959949 19.125 127.9453125 C18.19429688 127.41550781 17.26359375 126.88570313 16.3046875 126.33984375 C15.62664062 125.94152344 14.94859375 125.54320312 14.25 125.1328125 C14.270625 125.9371875 14.29125 126.7415625 14.3125 127.5703125 C14.25 130.1328125 14.25 130.1328125 13.25 131.1328125 C11.7612814 131.21950682 10.268555 131.23984744 8.77734375 131.23046875 C7.87822266 131.22724609 6.97910156 131.22402344 6.05273438 131.22070312 C5.10720703 131.21232422 4.16167969 131.20394531 3.1875 131.1953125 C2.23810547 131.19080078 1.28871094 131.18628906 0.31054688 131.18164062 C-2.04303065 131.1698136 -4.39648477 131.15333275 -6.75 131.1328125 C-6.77332869 114.20019046 -6.79097903 97.26757342 -6.80181217 80.334939 C-6.80697519 72.47336859 -6.81401801 64.61180815 -6.82543945 56.75024414 C-6.8353861 49.90055775 -6.84185338 43.05087858 -6.84408849 36.20118517 C-6.84539563 32.57211854 -6.84848169 28.94307256 -6.85573006 25.31401253 C-6.86374356 21.26930946 -6.86399115 17.22464261 -6.86352539 13.17993164 C-6.86712067 11.96793091 -6.87071594 10.75593018 -6.87442017 9.50720215 C-6.8730455 8.41198746 -6.87167084 7.31677277 -6.87025452 6.18836975 C-6.87117631 5.23062684 -6.8720981 4.27288393 -6.87304783 3.28611851 C-6.62376205 -1.07631974 -3.7233653 0.00389706 0 0 Z " fill="#FCFCFC" transform="translate(433.75,4.8671875)"/>
<path d="M0 0 C1.12591553 0.00523682 2.25183105 0.01047363 3.41186523 0.01586914 C4.62680664 0.0190918 5.84174805 0.02231445 7.09350586 0.02563477 C8.37290039 0.03401367 9.65229492 0.04239258 10.97045898 0.05102539 C12.2537207 0.05553711 13.53698242 0.06004883 14.85913086 0.06469727 C18.04211921 0.07652994 21.22501661 0.09301471 24.40795898 0.11352539 C25.60587071 2.50934885 25.52863338 3.98130077 25.52148438 6.6550293 C25.52140884 7.59585358 25.52133331 8.53667786 25.52125549 9.50601196 C25.51609421 10.52375702 25.51093292 11.54150208 25.50561523 12.59008789 C25.50420029 13.63047211 25.50278534 14.67085632 25.50132751 15.74276733 C25.49571765 19.0747156 25.48316346 22.40659734 25.47045898 25.73852539 C25.46544526 27.99373276 25.46088213 30.24894117 25.45678711 32.50415039 C25.44659472 38.04065514 25.42702118 43.57701556 25.40795898 49.11352539 C37.61795898 49.11352539 49.82795898 49.11352539 62.40795898 49.11352539 C62.39635742 45.66012695 62.38475586 42.20672852 62.37280273 38.64868164 C62.3650133 35.31933687 62.35893589 31.9899931 62.35302734 28.66064453 C62.34798565 26.33935088 62.34115247 24.01806042 62.33251953 21.69677734 C62.32044674 18.36823744 62.3147292 15.03973937 62.31030273 11.71118164 C62.30514145 10.66640152 62.29998016 9.6216214 62.29466248 8.54518127 C62.29458694 7.58426071 62.29451141 6.62334015 62.29443359 5.63330078 C62.29221298 4.78280655 62.28999237 3.93231232 62.28770447 3.05604553 C62.40795898 1.11352539 62.40795898 1.11352539 63.40795898 0.11352539 C65.40760881 0.02594536 67.41032008 0.00655963 69.41186523 0.01586914 C70.62680664 0.0190918 71.84174805 0.02231445 73.09350586 0.02563477 C74.37290039 0.03401367 75.65229492 0.04239258 76.97045898 0.05102539 C78.2537207 0.05553711 79.53698242 0.06004883 80.85913086 0.06469727 C84.04211921 0.07652994 87.22501661 0.09301471 90.40795898 0.11352539 C91.67145121 2.64050983 91.53380876 4.37739569 91.53494263 7.2066803 C91.53917236 8.82415413 91.53917236 8.82415413 91.54348755 10.4743042 C91.5404512 12.2565036 91.5404512 12.2565036 91.53735352 14.07470703 C91.53998199 15.94542122 91.53998199 15.94542122 91.54266357 17.85392761 C91.54631802 21.27940808 91.54545115 24.70482839 91.54228449 28.13030553 C91.53975808 31.70930263 91.54209916 35.28829711 91.54367065 38.86729431 C91.54549129 44.87719181 91.54308856 50.88707702 91.53833008 56.89697266 C91.53288519 63.85432451 91.53465218 70.81164706 91.54015648 77.76899821 C91.54468768 83.7341878 91.54533821 89.69936855 91.54271781 95.6645593 C91.54115539 99.23099367 91.54096038 102.79741424 91.5442543 106.36384773 C91.54766698 110.33648959 91.5429432 114.30909837 91.53735352 118.28173828 C91.53937775 119.47189545 91.54140198 120.66205261 91.54348755 121.88827515 C91.54066772 122.96377121 91.5378479 124.03926727 91.53494263 125.14735413 C91.53437709 126.557949 91.53437709 126.557949 91.53380013 127.99704075 C91.40795898 130.11352539 91.40795898 130.11352539 90.40795898 131.11352539 C81.16795898 131.11352539 71.92795898 131.11352539 62.40795898 131.11352539 C62.40795898 112.63352539 62.40795898 94.15352539 62.40795898 75.11352539 C50.19795898 75.11352539 37.98795898 75.11352539 25.40795898 75.11352539 C25.41956055 79.07223633 25.43116211 83.03094727 25.44311523 87.10961914 C25.45090432 90.92545491 25.45698192 94.74128981 25.46289062 98.55712891 C25.46793281 101.2179402 25.47476634 103.87874871 25.48339844 106.53955078 C25.49546907 110.35458055 25.50118828 114.16957383 25.50561523 117.98461914 C25.51077652 119.18251572 25.51593781 120.38041229 25.52125549 121.61460876 C25.52136879 123.2662075 25.52136879 123.2662075 25.52148438 124.95117188 C25.52370499 125.92602036 25.5259256 126.90086884 25.5282135 127.90525818 C25.40795898 130.11352539 25.40795898 130.11352539 24.40795898 131.11352539 C22.42038871 131.21335597 20.42928379 131.24433292 18.43920898 131.24633789 C17.2287793 131.24762695 16.01834961 131.24891602 14.77124023 131.25024414 C13.49635742 131.24637695 12.22147461 131.24250977 10.90795898 131.23852539 C8.99563477 131.24432617 8.99563477 131.24432617 7.04467773 131.25024414 C5.2290332 131.24831055 5.2290332 131.24831055 3.37670898 131.24633789 C2.2571582 131.24520996 1.13760742 131.24408203 -0.01586914 131.24291992 C-2.59204102 131.11352539 -2.59204102 131.11352539 -3.59204102 130.11352539 C-3.6903569 128.44559616 -3.71836091 126.77348533 -3.71902466 125.10266113 C-3.72184448 124.01730576 -3.72466431 122.93195038 -3.72756958 121.81370544 C-3.72554535 120.6126265 -3.72352112 119.41154755 -3.72143555 118.17407227 C-3.72318787 116.91732193 -3.72494019 115.66057159 -3.72674561 114.36573792 C-3.73131942 110.90921892 -3.7295306 107.45272964 -3.72636652 103.9962101 C-3.72384265 100.38651064 -3.72618053 96.77681381 -3.72775269 93.16711426 C-3.7295743 87.104162 -3.72716828 81.0412219 -3.72241211 74.97827148 C-3.7169695 67.95902453 -3.71873216 60.93980661 -3.72423851 53.92056036 C-3.72876987 47.90443596 -3.72942008 41.88832032 -3.72679985 35.87219477 C-3.72523719 32.27444641 -3.72504298 28.67671172 -3.72833633 25.07896423 C-3.73174924 21.0702847 -3.72702495 17.06165559 -3.72143555 13.05297852 C-3.72345978 11.85189957 -3.72548401 10.65082062 -3.72756958 9.41334534 C-3.72474976 8.32798996 -3.72192993 7.24263458 -3.71902466 6.12438965 C-3.71864763 5.1753199 -3.71827061 4.22625015 -3.71788216 3.24842072 C-3.53144904 0.0855824 -3.1903441 0.13972968 0 0 Z " fill="#F8F8F8" transform="translate(229.592041015625,4.886474609375)"/>
<path d="M0 0 C1.12591553 0.00523682 2.25183105 0.01047363 3.41186523 0.01586914 C4.62680664 0.0190918 5.84174805 0.02231445 7.09350586 0.02563477 C8.37290039 0.03401367 9.65229492 0.04239258 10.97045898 0.05102539 C12.2537207 0.05553711 13.53698242 0.06004883 14.85913086 0.06469727 C18.04211921 0.07652994 21.22501661 0.09301471 24.40795898 0.11352539 C24.42008926 1.24318977 24.42008926 1.24318977 24.4324646 2.39567566 C24.51049052 9.50216291 24.59780521 16.60846166 24.69548607 23.71470165 C24.74537587 27.36786814 24.79170627 31.02100673 24.82983398 34.67431641 C24.86677963 38.20170365 24.9131642 41.72885334 24.96602249 45.25603676 C24.99350189 47.25282136 25.01127182 49.24973194 25.02890015 51.24662781 C25.04876984 52.46751602 25.06863953 53.68840424 25.08911133 54.94628906 C25.102435 56.01884445 25.11575867 57.09139984 25.12948608 58.19645691 C25.41798809 61.21858256 26.05468775 63.40474248 27.40795898 66.11352539 C31.45657964 68.91706814 35.68238324 68.56508041 40.40795898 68.11352539 C42.18905236 67.65429389 43.95843726 67.14711003 45.71264648 66.59399414 C46.59678223 66.31837646 47.48091797 66.04275879 48.3918457 65.75878906 C49.38982178 65.43938354 49.38982178 65.43938354 50.40795898 65.11352539 C50.40573837 64.31394913 50.40351776 63.51437286 50.40122986 62.69056702 C50.38122807 55.170929 50.36598543 47.6513038 50.35614681 40.13164616 C50.35091873 36.26532422 50.34382245 32.39902418 50.33251953 28.53271484 C50.32168799 24.80449138 50.31568158 21.07628905 50.31308174 17.34805107 C50.31122797 15.92262883 50.30760828 14.4972078 50.30222893 13.07179451 C50.29501506 11.08189131 50.2945509 9.09196705 50.29443359 7.10205078 C50.29221298 5.96731827 50.28999237 4.83258575 50.28770447 3.66346741 C50.40795898 1.11352539 50.40795898 1.11352539 51.40795898 0.11352539 C53.3225418 0.01380754 55.24078216 -0.01728049 57.15795898 -0.01928711 C58.32327148 -0.02057617 59.48858398 -0.02186523 60.68920898 -0.02319336 C61.91639648 -0.01932617 63.14358398 -0.01545898 64.40795898 -0.01147461 C66.24874023 -0.01727539 66.24874023 -0.01727539 68.12670898 -0.02319336 C69.87467773 -0.02125977 69.87467773 -0.02125977 71.65795898 -0.01928711 C72.73561523 -0.01815918 73.81327148 -0.01703125 74.92358398 -0.01586914 C77.40795898 0.11352539 77.40795898 0.11352539 78.40795898 1.11352539 C78.5031211 3.85240959 78.53350493 6.5660048 78.52148438 9.30517578 C78.5216304 10.16363602 78.52177643 11.02209625 78.52192688 11.90657043 C78.52122745 14.75813277 78.51343368 17.60963064 78.50561523 20.46118164 C78.50375116 22.43273381 78.50232721 24.40428644 78.50132751 26.37583923 C78.4975015 31.57578806 78.4876705 36.77570914 78.47662354 41.97564697 C78.46641121 47.277462 78.46183028 52.57928149 78.45678711 57.88110352 C78.44604831 68.29192498 78.42845084 78.70271855 78.40795898 89.11352539 C72.13795898 89.11352539 65.86795898 89.11352539 59.40795898 89.11352539 C58.74795898 87.46352539 58.08795898 85.81352539 57.40795898 84.11352539 C56.72991211 84.4396582 56.05186523 84.76579102 55.35327148 85.10180664 C42.20388117 91.27582785 29.39956329 94.74560799 14.90795898 90.98852539 C6.99288959 88.11515566 2.1672705 83.69931375 -1.68188477 76.26196289 C-3.53119292 71.89664321 -3.71832803 68.08260842 -3.72143555 63.34130859 C-3.72318787 62.66933441 -3.72494019 61.99736023 -3.72674561 61.30502319 C-3.73113513 59.09142449 -3.72823736 56.87790611 -3.72485352 54.66430664 C-3.72552715 53.125422 -3.72649767 51.58653747 -3.72775269 50.0476532 C-3.72922552 46.82733138 -3.7270875 43.60703734 -3.72241211 40.38671875 C-3.71670066 36.25040904 -3.72000536 32.114164 -3.72598457 27.97785664 C-3.72958909 24.80296842 -3.72845236 21.62809568 -3.72585678 18.45320702 C-3.72518795 16.92730896 -3.7260144 15.40140951 -3.72833633 13.87551308 C-3.73086263 11.74949003 -3.72702331 9.62357365 -3.72143555 7.49755859 C-3.72063995 6.28606644 -3.71984436 5.07457428 -3.71902466 3.82637024 C-3.54719087 0.15535874 -3.54719087 0.15535874 0 0 Z " fill="#FDFDFD" transform="translate(336.592041015625,46.886474609375)"/>
<path d="M0 0 C1.12591553 0.00523682 2.25183105 0.01047363 3.41186523 0.01586914 C4.62680664 0.0190918 5.84174805 0.02231445 7.09350586 0.02563477 C8.37290039 0.03401367 9.65229492 0.04239258 10.97045898 0.05102539 C12.2537207 0.05553711 13.53698242 0.06004883 14.85913086 0.06469727 C18.04209319 0.07652984 21.22503173 0.09446595 24.40795898 0.11352539 C24.40795898 8.69352539 24.40795898 17.27352539 24.40795898 26.11352539 C31.00795898 26.11352539 37.60795898 26.11352539 44.40795898 26.11352539 C44.40795898 33.70352539 44.40795898 41.29352539 44.40795898 49.11352539 C37.80795898 49.11352539 31.20795898 49.11352539 24.40795898 49.11352539 C24.52789008 54.59463168 24.65055742 60.07553321 24.78027344 65.55639648 C24.82356331 67.42061731 24.86524259 69.28487627 24.90527344 71.14916992 C24.96312012 73.83011359 25.02677303 76.51086639 25.09155273 79.19165039 C25.11662148 80.44029877 25.11662148 80.44029877 25.14219666 81.71417236 C25.16214188 82.49467957 25.1820871 83.27518677 25.20263672 84.0793457 C25.22595314 85.10526825 25.22595314 85.10526825 25.2497406 86.1519165 C25.41717714 88.22781312 25.84960926 90.11027284 26.40795898 92.11352539 C31.27625035 93.58504923 36.34400909 93.54135114 41.38842773 93.83227539 C44.40795898 94.11352539 44.40795898 94.11352539 45.40795898 95.11352539 C45.65762465 98.25175989 45.59317689 101.40402152 45.59545898 104.55102539 C45.60770508 105.4359668 45.61995117 106.3209082 45.63256836 107.23266602 C45.63450195 108.07893555 45.63643555 108.92520508 45.63842773 109.79711914 C45.64253662 110.57627686 45.64664551 111.35543457 45.65087891 112.15820312 C45.40795898 114.11352539 45.40795898 114.11352539 43.40795898 116.11352539 C38.6392953 117.55521441 33.59618202 117.33430514 28.65795898 117.36352539 C27.80202148 117.38415039 26.94608398 117.40477539 26.06420898 117.42602539 C16.92150974 117.48143569 9.84739059 115.40344302 3.13452148 109.07836914 C-1.86720373 103.38636059 -3.72668123 96.91080314 -3.70556641 89.41503906 C-3.70549088 88.51448288 -3.70541534 87.6139267 -3.70533752 86.68608093 C-3.70017624 85.72756729 -3.69501495 84.76905365 -3.68969727 83.78149414 C-3.68828232 82.78974686 -3.68686737 81.79799957 -3.68540955 80.77619934 C-3.6798252 77.61777697 -3.66727553 74.45942624 -3.65454102 71.30102539 C-3.64952399 69.15584412 -3.64496144 67.01066174 -3.64086914 64.86547852 C-3.62986089 59.61479999 -3.61260698 54.36417483 -3.59204102 49.11352539 C-8.21204102 49.11352539 -12.83204102 49.11352539 -17.59204102 49.11352539 C-17.59204102 42.84352539 -17.59204102 36.57352539 -17.59204102 30.11352539 C-12.72686629 28.72347547 -8.53645745 27.71896414 -3.59204102 27.11352539 C-3.59727783 26.33114502 -3.60251465 25.54876465 -3.60791016 24.74267578 C-3.62861207 21.22046706 -3.6416794 17.69827109 -3.65454102 14.17602539 C-3.66291992 12.94432617 -3.67129883 11.71262695 -3.67993164 10.44360352 C-3.6831543 9.2737793 -3.68637695 8.10395508 -3.68969727 6.89868164 C-3.69493408 5.81466064 -3.7001709 4.73063965 -3.70556641 3.61376953 C-3.55003792 0.18846362 -3.43345705 0.15037746 0 0 Z " fill="#FBFBFB" transform="translate(169.592041015625,20.886474609375)"/>
<path d="M0 0 C8.91 0 17.82 0 27 0 C27 29.37 27 58.74 27 89 C18.09 89 9.18 89 0 89 C-1.7974182 87.2025818 -1.12630946 84.75862038 -1.13552856 82.36555481 C-1.13350433 81.55720688 -1.1314801 80.74885895 -1.12939453 79.91601562 C-1.13114685 79.06891525 -1.13289917 78.22181488 -1.13470459 77.3490448 C-1.13912409 74.53475934 -1.13618477 71.72053616 -1.1328125 68.90625 C-1.13348551 66.95951322 -1.13445551 65.01277653 -1.13571167 63.06604004 C-1.13718878 58.98037925 -1.13503368 54.89474029 -1.13037109 50.80908203 C-1.1246738 45.55953484 -1.12795274 40.31003878 -1.13394356 35.06049347 C-1.13754883 31.03891613 -1.13641074 27.01735101 -1.13381577 22.99577332 C-1.1331464 21.05958551 -1.13397525 19.12339661 -1.13629532 17.18721008 C-1.13882129 14.48610476 -1.13498205 11.78508341 -1.12939453 9.08398438 C-1.13141876 8.27563644 -1.13344299 7.46728851 -1.13552856 6.63444519 C-1.11426248 1.11426248 -1.11426248 1.11426248 0 0 Z " fill="#FDFDFD" transform="translate(115,47)"/>
<path d="M0 0 C4.5943042 3.57334771 6.77766277 6.02636868 8.25 11.75 C8.53331571 15.19161306 8.52931214 18.61099602 8.5 22.0625 C8.50773437 22.96162109 8.51546875 23.86074219 8.5234375 24.78710938 C8.50272819 31.94735337 8.47250809 39.08299029 3.75 44.75 C0.32221513 47.4922279 -1.48190189 47.94677375 -5.8125 48.0625 C-6.71097656 48.09988281 -7.60945313 48.13726562 -8.53515625 48.17578125 C-11.75 47.75 -11.75 47.75 -20.75 43.75 C-20.75 30.22 -20.75 16.69 -20.75 2.75 C-13.94492445 -0.65253778 -7.37659336 -3.35299698 0 0 Z " fill="#030303" transform="translate(475.75,68.25)"/>
<path d="M0 0 C4.67113357 4.32934331 6.80111982 7.45376026 7.0625 13.875 C6.86219749 18.7957651 5.99167072 21.67510527 2.5625 25.375 C-1.78933072 29.31237065 -5.35482898 30.00923042 -11.0390625 29.76171875 C-15.9050285 28.97714117 -18.59469486 26.33169773 -21.75 22.75 C-24.88608981 18.33624398 -25.19250785 14.70247114 -24.4375 9.375 C-22.76980102 5.36145058 -20.46356927 2.34071226 -17.3125 -0.625 C-11.4549741 -2.66240031 -5.61018206 -2.65208606 0 0 Z " fill="#FAFAFA" transform="translate(137.4375,10.625)"/>
<path d="M0 0 C0.33 0 0.66 0 1 0 C1.09796875 1.00417969 1.1959375 2.00835937 1.296875 3.04296875 C3.11450905 20.1987351 7.09416723 34.90585482 20 47 C29.17130229 53.92285399 40.28538233 57.88768811 51.73828125 58.31640625 C52.80498047 58.35830078 53.87167969 58.40019531 54.97070312 58.44335938 C56.07349609 58.48267578 57.17628906 58.52199219 58.3125 58.5625 C59.99569336 58.62727539 59.99569336 58.62727539 61.71289062 58.69335938 C64.47514569 58.79914787 67.2374863 58.90123672 70 59 C70 59.33 70 59.66 70 60 C46.9 60 23.8 60 0 60 C0 40.2 0 20.4 0 0 Z " fill="#080808" transform="translate(0,79)"/>
<path d="M0 0 C15.51 0 31.02 0 47 0 C47 0.33 47 0.66 47 1 C46.27296875 1.14695313 45.5459375 1.29390625 44.796875 1.4453125 C32.20530092 4.2542021 20.35442135 9.18490707 12.875 20.1015625 C5.31564614 32.27477644 2.4819962 44.90153616 1 59 C0.67 59 0.34 59 0 59 C0 39.53 0 20.06 0 0 Z " fill="#030303" transform="translate(0,0)"/>
<path d="M0 0 C0.33 0 0.66 0 1 0 C1 12.87 1 25.74 1 39 C-7.91 39 -16.82 39 -26 39 C-23.49923035 37.33282023 -21.43385112 36.30216755 -18.6875 35.1875 C-10.60866517 31.57362899 -7.41404956 27.86873405 -4.03125 19.76953125 C-1.62128249 13.29730789 -0.60336501 6.85930745 0 0 Z " fill="#060606" transform="translate(511,100)"/>
</svg>
